<svg width="35" height="35" viewBox="0 0 35 35" fill="none" xmlns="http://www.w3.org/2000/svg">
<path d="M26.1147 5.30467H23.3257V4.56092C23.3 4.08878 23.0943 3.64445 22.751 3.31932C22.4077 2.99419 21.9528 2.81299 21.48 2.81299C21.0071 2.81299 20.5523 2.99419 20.209 3.31932C19.8656 3.64445 19.66 4.08878 19.6343 4.56092V5.30467H14.2366V4.56092C14.2109 4.08878 14.0052 3.64445 13.6619 3.31932C13.3186 2.99419 12.8637 2.81299 12.3909 2.81299C11.9181 2.81299 11.4632 2.99419 11.1199 3.31932C10.7766 3.64445 10.5709 4.08878 10.5452 4.56092V5.30467H8.35771C7.87945 5.30752 7.42151 5.4984 7.08281 5.83608C6.74412 6.17375 6.55185 6.63111 6.54755 7.10936V23.6523H2.54989C2.40485 23.6523 2.26575 23.7099 2.16319 23.8125C2.06064 23.9151 2.00302 24.0542 2.00302 24.1992C1.98038 24.7814 2.08529 25.3616 2.3104 25.899C2.53552 26.4364 2.87539 26.9182 3.30623 27.3105C3.73707 27.7027 4.24845 27.9961 4.80457 28.17C5.36069 28.3439 5.94811 28.3941 6.52568 28.3172V31.7187C6.52568 31.8638 6.58329 32.0029 6.68585 32.1054C6.78841 32.208 6.92751 32.2656 7.07255 32.2656H27.4108C27.5559 32.2656 27.695 32.208 27.7975 32.1054C27.9001 32.0029 27.9577 31.8638 27.9577 31.7187V18.9875C27.9262 18.8716 27.8575 18.7694 27.7621 18.6964C27.6667 18.6235 27.55 18.584 27.43 18.584C27.3099 18.584 27.1932 18.6235 27.0978 18.6964C27.0025 18.7694 26.9337 18.8716 26.9022 18.9875V23.6195C27.0554 25.3094 26.2186 27.2562 24.8788 27.2453C23.6265 27.3601 22.6913 25.9328 22.653 24.1828C22.653 24.0378 22.5954 23.8987 22.4928 23.7961C22.3903 23.6935 22.2512 23.6359 22.1061 23.6359H7.60302V11.539H11.0702C11.1513 11.5611 11.2364 11.5641 11.3189 11.548C11.4014 11.5318 11.479 11.4968 11.5458 11.4458C11.6125 11.3947 11.6666 11.329 11.7039 11.2536C11.7411 11.1783 11.7605 11.0954 11.7605 11.0113C11.7605 10.9273 11.7411 10.8443 11.7039 10.769C11.6666 10.6937 11.6125 10.6279 11.5458 10.5769C11.479 10.5258 11.4014 10.4908 11.3189 10.4747C11.2364 10.4585 11.1513 10.4615 11.0702 10.4836H7.60302V7.10936C7.60302 6.9063 7.68368 6.71156 7.82726 6.56798C7.97085 6.4244 8.16559 6.34373 8.36864 6.34373H10.5561C10.5631 6.8407 10.702 7.32688 10.9585 7.75256C11.2151 8.17823 11.5801 8.52811 12.0163 8.76639C12.4374 8.96327 13.0718 9.54295 13.4272 8.93592C13.4897 8.81238 13.503 8.66974 13.4644 8.53679C13.4259 8.40383 13.3383 8.29045 13.2194 8.21951L12.5249 7.8367C12.255 7.68991 12.0285 7.47466 11.8682 7.21259C11.7079 6.95051 11.6194 6.65085 11.6116 6.34373H19.6397C19.6467 6.8407 19.7856 7.32688 20.0421 7.75256C20.2987 8.17823 20.6637 8.52811 21.0999 8.76639C21.5155 8.9578 22.1499 9.54295 22.5108 8.93592C22.8718 8.32889 21.9968 8.08826 21.6085 7.84217C21.3386 7.69538 21.1121 7.48013 20.9518 7.21806C20.7915 6.95598 20.703 6.65632 20.6952 6.3492H26.1147C26.3178 6.3492 26.5125 6.42987 26.6561 6.57345C26.7997 6.71703 26.8804 6.91177 26.8804 7.11483V10.4726H13.7061C13.5903 10.5041 13.488 10.5729 13.4151 10.6682C13.3422 10.7636 13.3027 10.8803 13.3027 11.0004C13.3027 11.1204 13.3422 11.2371 13.4151 11.3325C13.488 11.4279 13.5903 11.4966 13.7061 11.5281H26.8804V15.7937C26.9118 15.9096 26.9806 16.0119 27.076 16.0848C27.1713 16.1577 27.288 16.1972 27.4081 16.1972C27.5281 16.1972 27.6449 16.1577 27.7402 16.0848C27.8356 16.0119 27.9043 15.9096 27.9358 15.7937V7.10936C27.9315 6.62922 27.7377 6.17022 27.3967 5.83224C27.0556 5.49426 26.5949 5.30465 26.1147 5.30467ZM24.8569 28.3008C25.2485 28.2889 25.6327 28.1912 25.9824 28.0145C26.332 27.8378 26.6386 27.5864 26.8804 27.2781V31.2101H7.60302V28.3008H24.8569ZM22.6038 27.2453H5.79833C5.12252 27.2112 4.48112 26.9368 3.98978 26.4715C3.49844 26.0063 3.18949 25.3808 3.11864 24.7078H21.603C21.6767 25.6344 22.0251 26.5179 22.6038 27.2453ZM20.6897 4.56092C20.7062 4.36269 20.7966 4.1779 20.943 4.0432C21.0894 3.90851 21.2811 3.83375 21.48 3.83375C21.6789 3.83375 21.8705 3.90851 22.0169 4.0432C22.1633 4.1779 22.2537 4.36269 22.2702 4.56092V5.30467H20.6897V4.56092ZM11.6007 4.56092C11.6172 4.36269 11.7076 4.1779 11.854 4.0432C12.0003 3.90851 12.192 3.83375 12.3909 3.83375C12.5898 3.83375 12.7815 3.90851 12.9279 4.0432C13.0742 4.1779 13.1646 4.36269 13.1811 4.56092V5.30467H11.6007V4.56092Z" fill="#3E4095" stroke="#3E4095" stroke-width="0.8"/>
<path d="M15.7189 20.9399C15.603 20.9714 15.5008 21.0401 15.4279 21.1355C15.3549 21.2308 15.3154 21.3476 15.3154 21.4676C15.3154 21.5877 15.3549 21.7044 15.4279 21.7997C15.5008 21.8951 15.603 21.9639 15.7189 21.9953H18.765C18.8808 21.9639 18.9831 21.8951 19.056 21.7997C19.1289 21.7044 19.1684 21.5877 19.1684 21.4676C19.1684 21.3476 19.1289 21.2308 19.056 21.1355C18.9831 21.0401 18.8808 20.9714 18.765 20.9399H17.808V14.8586C17.806 14.769 17.782 14.6812 17.7382 14.603C17.6943 14.5248 17.6319 14.4586 17.5564 14.4102C17.4733 14.3622 17.379 14.3369 17.283 14.3369C17.187 14.3369 17.0927 14.3622 17.0095 14.4102L15.4509 15.2031C15.3615 15.2838 15.3013 15.3918 15.2795 15.5102C15.2577 15.6287 15.2757 15.751 15.3305 15.8582C15.3854 15.9654 15.4741 16.0515 15.5829 16.1031C15.6916 16.1548 15.8144 16.1691 15.9322 16.1438L16.7251 15.7446V20.9617L15.7189 20.9399Z" fill="#3E4095" stroke="#3E4095" stroke-width="0.6"/>
</svg>
