<svg width="28" height="31" viewBox="0 0 28 31" fill="none" xmlns="http://www.w3.org/2000/svg">
<path fill-rule="evenodd" clip-rule="evenodd" d="M0.218965 5.53228C-0.0374831 4.52509 0.107397 3.45765 0.623032 2.55525C1.13867 1.65285 1.98472 0.986065 2.98264 0.695619C3.98057 0.405173 5.0523 0.513783 5.97166 0.998529C6.89103 1.48327 7.58611 2.30624 7.91022 3.29374L12.8292 18.0521H23.7083C24.772 18.0521 25.792 18.4746 26.5441 19.2267C27.2962 19.9788 27.7188 20.9989 27.7188 22.0625C27.7188 23.1261 27.2962 24.1462 26.5441 24.8983C25.792 25.6504 24.772 26.0729 23.7083 26.0729H6.20834C5.96434 26.073 5.7273 25.9916 5.53492 25.8415C5.34255 25.6914 5.20588 25.4813 5.14667 25.2446L2.77688 15.7654C2.71123 15.4857 2.75827 15.1914 2.90785 14.9461C3.05743 14.7008 3.29752 14.5241 3.57625 14.4544C3.85497 14.3847 4.14995 14.4274 4.39741 14.5734C4.64488 14.7194 4.82497 14.9569 4.89876 15.2346L7.06147 23.8854H23.7083C24.1918 23.8854 24.6555 23.6934 24.9973 23.3515C25.3392 23.0096 25.5313 22.546 25.5313 22.0625C25.5313 21.579 25.3392 21.1154 24.9973 20.7735C24.6555 20.4316 24.1918 20.2396 23.7083 20.2396H12.0417C11.812 20.2397 11.588 20.1675 11.4017 20.0332C11.2153 19.8989 11.0759 19.7094 11.0033 19.4914L5.83501 3.98499C5.69162 3.53179 5.37662 3.15267 4.95736 2.9287C4.53809 2.70472 4.04784 2.65366 3.59142 2.78643C3.135 2.9192 2.74863 3.22527 2.51493 3.6392C2.28124 4.05312 2.21875 4.54205 2.34084 5.00145L3.44042 9.40124C3.50608 9.68095 3.45903 9.97527 3.30946 10.2206C3.15988 10.4659 2.91978 10.6425 2.64106 10.7122C2.36233 10.782 2.06736 10.7392 1.81989 10.5932C1.57243 10.4472 1.39234 10.2098 1.31855 9.93207L0.218965 5.53228ZM6.57292 29.3542C6.57292 29.0641 6.68816 28.7859 6.89328 28.5808C7.09839 28.3756 7.37659 28.2604 7.66667 28.2604H23.7083C23.9984 28.2604 24.2766 28.3756 24.4817 28.5808C24.6869 28.7859 24.8021 29.0641 24.8021 29.3542C24.8021 29.6442 24.6869 29.9224 24.4817 30.1276C24.2766 30.3327 23.9984 30.4479 23.7083 30.4479H7.66667C7.37659 30.4479 7.09839 30.3327 6.89328 30.1276C6.68816 29.9224 6.57292 29.6442 6.57292 29.3542Z" fill="#3E4095"/>
</svg>
