<svg width="35" height="19" viewBox="0 0 35 19" fill="none" xmlns="http://www.w3.org/2000/svg">
<path d="M33.8287 11.1352H4.69C4.207 11.1352 3.815 11.5272 3.815 12.0102C3.815 12.4932 4.207 12.8852 4.69 12.8852H32.9432C32.8907 14.9373 31.2142 16.5753 29.162 16.58H5.82867C3.73567 16.5777 2.03934 14.8813 2.037 12.7883V5.78834C2.03934 3.69534 3.73567 1.99901 5.82867 1.99667H29.162C31.255 1.99901 32.9513 3.69534 32.9537 5.78834V8.54517C32.9525 9.68734 34.7025 9.68851 34.7037 8.54517V5.78834C34.7002 2.72934 32.221 0.250174 29.162 0.246674H5.82867C2.76967 0.250174 0.290503 2.72934 0.287003 5.78834V12.7883C0.290503 15.8473 2.76967 18.3265 5.82867 18.33H29.162C32.221 18.3265 34.7002 15.8473 34.7037 12.7883C34.7282 12.0813 34.7807 11.1748 33.8287 11.1352Z" fill="#3E4095"/>
</svg>
