<svg width="21" height="33" viewBox="0 0 21 33" fill="none" xmlns="http://www.w3.org/2000/svg">
<path d="M17.5928 1.1875H3.40717C2.68223 1.18835 1.98722 1.47671 1.47461 1.98932C0.962002 2.50193 0.673643 3.19694 0.672791 3.92188V6.84771C0.674719 6.99148 0.733185 7.12871 0.835535 7.22969C0.937884 7.33068 1.07588 7.3873 1.21967 7.3873C1.36345 7.3873 1.50145 7.33068 1.6038 7.22969C1.70615 7.12871 1.76461 6.99148 1.76654 6.84771V3.92188C1.76702 3.4869 1.94002 3.06988 2.24759 2.7623C2.55517 2.45473 2.97219 2.28172 3.40717 2.28125H4.17592L4.48758 3.4276C4.64744 4.00519 4.99176 4.51468 5.46806 4.87841C5.94437 5.24215 6.52653 5.44018 7.12583 5.44234H13.8742C14.4738 5.44008 15.0563 5.24175 15.5327 4.87761C16.0091 4.51347 16.3534 4.00349 16.5129 3.42546L16.824 2.28125H17.5928C18.0278 2.28172 18.4448 2.45473 18.7524 2.7623C19.0599 3.06988 19.2329 3.4869 19.2334 3.92188V24.0468C19.2358 24.1902 19.2945 24.327 19.3968 24.4276C19.4991 24.5282 19.6368 24.5846 19.7803 24.5845C19.9238 24.5845 20.0615 24.5282 20.1638 24.4276C20.2661 24.327 20.3248 24.1902 20.3272 24.0467L20.3272 3.92188C20.3263 3.19694 20.038 2.50193 19.5254 1.98932C19.0128 1.47671 18.3177 1.18835 17.5928 1.1875ZM15.4582 3.13656C15.3624 3.48367 15.1558 3.78996 14.8698 4.00877C14.5839 4.22758 14.2342 4.34692 13.8742 4.34861H7.12581C6.76609 4.34702 6.41673 4.22797 6.13089 4.00957C5.84505 3.79117 5.63838 3.48537 5.54233 3.1387L5.30948 2.28125H15.6905L15.4582 3.13656ZM19.7803 25.6874C19.7085 25.6874 19.6374 25.7015 19.571 25.729C19.5046 25.7565 19.4444 25.7967 19.3936 25.8475C19.3428 25.8983 19.3025 25.9586 19.275 26.025C19.2475 26.0913 19.2334 26.1624 19.2334 26.2343V29.0781C19.233 29.5131 19.06 29.9301 18.7524 30.2377C18.4448 30.5453 18.0278 30.7183 17.5928 30.7188H3.40717C2.97219 30.7183 2.55517 30.5453 2.24759 30.2377C1.94002 29.9301 1.76702 29.5131 1.76654 29.0781V9.03521C1.76414 8.89176 1.70546 8.75499 1.60316 8.65439C1.50086 8.55379 1.36312 8.49742 1.21965 8.49743C1.07617 8.49743 0.938445 8.55381 0.83615 8.65442C0.733855 8.75502 0.675187 8.89179 0.672791 9.03524V29.0781C0.673643 29.8031 0.962002 30.4981 1.47461 31.0107C1.98722 31.5233 2.68223 31.8116 3.40717 31.8125H17.5928C18.3177 31.8116 19.0128 31.5233 19.5254 31.0107C20.038 30.4981 20.3263 29.8031 20.3272 29.0781V26.2343C20.3272 26.1624 20.3131 26.0913 20.2856 26.025C20.2581 25.9586 20.2178 25.8983 20.167 25.8475C20.1163 25.7967 20.056 25.7565 19.9896 25.729C19.9233 25.7015 19.8521 25.6874 19.7803 25.6874Z" fill="#3E4095" stroke="#3E4095" stroke-width="0.5"/>
</svg>
