<svg width="35" height="35" viewBox="0 0 35 35" fill="none" xmlns="http://www.w3.org/2000/svg">
<path d="M27.3939 11.3176C28.866 13.6734 29.4492 16.4771 29.0385 19.2245C28.628 21.9718 27.2506 24.4825 25.1541 26.305C23.0576 28.1275 20.3796 29.142 17.6018 29.1662C14.8241 29.1905 12.1288 28.2228 10.0008 26.4373C7.87285 24.6517 6.45182 22.1654 5.99334 19.4256C5.53487 16.6858 6.06901 13.8723 7.49972 11.4912C8.93043 9.11013 11.1638 7.31767 13.7981 6.43623C16.4325 5.5548 19.2948 5.64226 21.8705 6.68287M13.6111 22.0079L21.3889 12.9233" stroke="#3E4095" stroke-width="1.6" stroke-linecap="round" stroke-linejoin="round"/>
<path d="M20.4166 21.4754C21.2221 21.4754 21.875 20.8225 21.875 20.0171C21.875 19.2117 21.2221 18.5587 20.4166 18.5587C19.6112 18.5587 18.9583 19.2117 18.9583 20.0171C18.9583 20.8225 19.6112 21.4754 20.4166 21.4754Z" stroke="#3E4095" stroke-width="1.6" stroke-linecap="round" stroke-linejoin="round"/>
<path d="M14.5833 15.6421C15.3887 15.6421 16.0417 14.9892 16.0417 14.1837C16.0417 13.3783 15.3887 12.7254 14.5833 12.7254C13.7779 12.7254 13.125 13.3783 13.125 14.1837C13.125 14.9892 13.7779 15.6421 14.5833 15.6421Z" stroke="#3E4095" stroke-width="1.6" stroke-linecap="round" stroke-linejoin="round"/>
</svg>
