<svg width="35" height="35" viewBox="0 0 35 35" fill="none" xmlns="http://www.w3.org/2000/svg">
<path d="M14 18.6667L17.1111 21L21 14" stroke="#3E4095" stroke-width="1.5" stroke-linecap="round" stroke-linejoin="round"/>
<path d="M15.7622 3.58491C16.7977 2.80503 18.2023 2.80503 19.2378 3.58491L20.5936 4.60613C21.0998 4.98741 21.7105 5.19227 22.337 5.19105L24.0153 5.18775C25.2969 5.18523 26.4333 6.03779 26.827 7.29715L27.3425 8.94623C27.535 9.5619 27.9125 10.0983 28.4201 10.4775L29.7797 11.4934C30.818 12.2693 31.2521 13.6487 30.8537 14.9065L30.3321 16.5535C30.1373 17.1684 30.1373 17.8315 30.3321 18.4464L30.8537 20.0935C31.2521 21.3513 30.818 22.7308 29.7797 23.5065L28.4201 24.5225C27.9125 24.9017 27.535 25.4381 27.3425 26.0536L26.827 27.7027C26.4333 28.9621 25.2969 29.8146 24.0153 29.8123L22.337 29.8089C21.7105 29.8077 21.0998 30.0126 20.5936 30.3938L19.2378 31.415C18.2023 32.195 16.7977 32.195 15.7622 31.415L14.4064 30.3938C13.9002 30.0126 13.2895 29.8077 12.663 29.8089L10.9847 29.8123C9.7031 29.8146 8.56664 28.9621 8.17293 27.7027L7.65737 26.0536C7.46488 25.4381 7.08748 24.9017 6.57988 24.5225L5.22028 23.5065C4.182 22.7308 3.7479 21.3513 4.14627 20.0935L4.66791 18.4464C4.86266 17.8315 4.86266 17.1684 4.66791 16.5535L4.14627 14.9065C3.7479 13.6487 4.182 12.2693 5.22028 11.4934L6.57988 10.4775C7.08748 10.0983 7.46488 9.5619 7.65737 8.94623L8.17293 7.29715C8.56664 6.03779 9.7031 5.18523 10.9847 5.18775L12.663 5.19105C13.2895 5.19227 13.9002 4.98741 14.4064 4.60613L15.7622 3.58491Z" stroke="#3E4095" stroke-width="1.5" stroke-linecap="round" stroke-linejoin="round"/>
<path d="M24.7083 12.9957C25.7809 14.712 26.2057 16.7547 25.9067 18.7563C25.6075 20.7581 24.604 22.5873 23.0765 23.915C21.5491 25.2428 19.598 25.982 17.5741 25.9997C15.5505 26.0174 13.5867 25.3124 12.0363 24.0114C10.4859 22.7105 9.45062 20.899 9.11659 18.9028C8.78256 16.9067 9.17172 14.857 10.2141 13.1222C11.2565 11.3874 12.8836 10.0814 14.803 9.43924C16.7223 8.79707 18.8076 8.86078 20.6841 9.61893" stroke="#3E4095" stroke-width="1.5" stroke-linecap="round" stroke-linejoin="round"/>
</svg>
